# xmcd CD database file
#
# Track frame offsets:
#	150
#	18097
#	36968
#	58276
#	75783
#	95045
#	113361
#	132086
#	152518
#	170254
#	191295
#	208945
#
# Disc length: 3021 seconds
#
# Revision: 0
# Processed by: cddbd v1.5.2PL0 Copyright (c) Steve Scherf et al.
# Submitted via: CDex 1.50
#
DISCID=8b0bcb0c
DTITLE=Merengue del Dominicano - Clasicos de Oro
DYEAR=1998
DGENRE=Merengue
TTITLE0=Anoche Soñe
TTITLE1=Compadre Pedro Juan
TTITLE2=Vayase en Paz
TTITLE3=El Pichoncito
TTITLE4=Dolorita
TTITLE5=Desiderio Arias
TTITLE6=Juanita Morel
TTITLE7=Carmela Linda
TTITLE8=La Chiva Blanca
TTITLE9=Arroyito Cristalino
TTITLE10=Siña Juanica
TTITLE11=Caña Brava
EXTD=YEAR: 1998
EXTT0=
EXTT1=
EXTT2=
EXTT3=
EXTT4=
EXTT5=
EXTT6=
EXTT7=
EXTT8=
EXTT9=
EXTT10=
EXTT11=
PLAYORDER=
